<?xml version="1.0" encoding="UTF-8"?>
<svg id="Layer_1" data-name="Layer 1" xmlns="http://www.w3.org/2000/svg" viewBox="0 0 1350 1080">
  <defs>
    <style>
      .cls-1, .cls-2 {
        stroke-width: 0px;
      }

      .cls-2 {
        fill: red;
      }
    </style>
  </defs>
  <path class="cls-1" d="m277.79,481.13h-13.8l-44.09,115.31h23.39l6.48-18.48h42.24l6.48,18.48h23.39l-44.09-115.31Zm-20.68,75.89l13.78-39.33,13.78,39.33h-27.56Z"/>
  <path class="cls-1" d="m395.82,548.91c2.68-.72,5.2-1.77,7.54-3.15,4.84-2.85,8.58-6.88,11.22-12.09,2.65-5.21,3.97-11.25,3.97-18.12s-1.32-12.92-3.97-18.12c-2.64-5.21-6.37-9.24-11.18-12.1-4.81-2.85-10.39-4.28-16.73-4.28h-50.52v115.39h21.73v-46.39h13.18l26,46.39h26.33l-27.57-47.53Zm-37.94-46.92h27.04c2.28,0,4.26.55,5.95,1.66,1.69,1.11,3,2.7,3.93,4.76.92,2.06,1.38,4.44,1.38,7.14-.05,2.69-.54,5.07-1.46,7.14-.93,2.06-2.24,3.64-3.93,4.75-1.69,1.11-3.65,1.67-5.87,1.67h-27.04v-27.12Z"/>
  <path class="cls-1" d="m455.67,592.59c-6.24-3.36-11-8.25-14.27-14.67-3.28-6.42-4.92-14.18-4.92-23.28v-31.64c0-9.09,1.64-16.85,4.92-23.28,3.28-6.42,8.04-11.33,14.27-14.71,6.24-3.38,13.75-5.08,22.52-5.08,7.24,0,13.72,1.56,19.43,4.68,5.71,3.12,10.43,7.65,14.16,13.6,3.73,5.95,6.3,13.13,7.73,21.53h-22.52c-.85-3.81-2.16-7.06-3.93-9.75-1.77-2.7-3.91-4.76-6.42-6.19-2.51-1.43-5.33-2.14-8.45-2.14-4.07,0-7.53.83-10.39,2.5s-5.04,4.1-6.54,7.3c-1.51,3.2-2.26,7.05-2.26,11.54v31.64c0,4.5.75,8.33,2.26,11.5,1.51,3.17,3.69,5.59,6.54,7.26,2.85,1.67,6.32,2.5,10.39,2.5,3.17,0,6.03-.7,8.57-2.1,2.54-1.4,4.68-3.45,6.42-6.15,1.75-2.7,3.01-5.97,3.81-9.83h22.52c-1.48,8.41-4.08,15.58-7.81,21.53-3.73,5.95-8.43,10.48-14.12,13.6-5.68,3.12-12.15,4.68-19.39,4.68-8.78,0-16.29-1.68-22.52-5.04Z"/>
  <path class="cls-1" d="m553.81,592.36c-6.37-3.52-11.3-8.49-14.79-14.91-3.49-6.42-5.23-13.86-5.23-22.32v-32.67c0-8.46,1.74-15.9,5.23-22.33,3.49-6.42,8.42-11.39,14.79-14.91,6.37-3.52,13.73-5.27,22.09-5.27s15.72,1.76,22.09,5.27c6.37,3.52,11.3,8.49,14.79,14.91,3.49,6.42,5.23,13.87,5.23,22.33v32.67c0,8.46-1.74,15.9-5.23,22.32-3.49,6.42-8.42,11.39-14.79,14.91-6.37,3.52-13.73,5.27-22.09,5.27s-15.72-1.76-22.09-5.27Zm32.4-18.95c2.96-1.67,5.25-4.03,6.86-7.1,1.61-3.07,2.42-6.61,2.42-10.63v-33.78c0-4.02-.81-7.56-2.42-10.63-1.61-3.07-3.9-5.43-6.86-7.1-2.96-1.67-6.4-2.5-10.31-2.5s-7.35.83-10.31,2.5c-2.96,1.67-5.25,4.03-6.86,7.1-1.61,3.07-2.42,6.61-2.42,10.63v33.78c0,4.02.81,7.56,2.42,10.63,1.61,3.07,3.9,5.43,6.86,7.1,2.96,1.67,6.4,2.5,10.31,2.5s7.35-.83,10.31-2.5Z"/>
  <polygon class="cls-1" points="727.76 481.13 727.76 596.36 701.05 596.36 660.2 513.25 660.2 596.36 639.42 596.36 639.42 481.13 665.99 481.13 706.99 565.57 706.99 481.13 727.76 481.13"/>
  <polygon class="cls-1" points="841.49 481.13 841.49 596.36 814.76 596.36 773.92 513.23 773.92 596.36 753.14 596.36 753.14 481.13 779.71 481.13 820.71 565.57 820.71 481.13 841.49 481.13"/>
  <path class="cls-2" d="m896.11,502.07v26.64h33.28v20.94h-33.28v25.85h42v20.94h-43.88c-16.77,0-30.36-13.59-30.36-30.36v-54.58c0-16.77,13.59-30.36,30.36-30.36h43.88v20.94h-42Z"/>
  <path class="cls-1" d="m974.76,592.59c-6.24-3.36-11-8.25-14.28-14.67s-4.92-14.18-4.92-23.28v-31.64c0-9.09,1.64-16.85,4.92-23.28s8.04-11.33,14.28-14.71c6.24-3.38,13.75-5.08,22.52-5.08,7.24,0,13.72,1.56,19.43,4.68,5.71,3.12,10.43,7.65,14.16,13.6,3.73,5.95,6.3,13.13,7.73,21.53h-22.52c-.85-3.81-2.15-7.06-3.93-9.75-1.77-2.7-3.91-4.76-6.42-6.19-2.51-1.43-5.33-2.14-8.45-2.14-4.07,0-7.53.83-10.39,2.5-2.85,1.67-5.04,4.1-6.54,7.3-1.51,3.2-2.26,7.05-2.26,11.54v31.64c0,4.5.75,8.33,2.26,11.5,1.51,3.17,3.69,5.59,6.54,7.26,2.86,1.67,6.32,2.5,10.39,2.5,3.17,0,6.03-.7,8.56-2.1,2.54-1.4,4.68-3.45,6.42-6.15,1.75-2.7,3.01-5.97,3.81-9.83h22.52c-1.48,8.41-4.08,15.58-7.81,21.53-3.73,5.95-8.43,10.48-14.12,13.6-5.68,3.12-12.15,4.68-19.39,4.68-8.78,0-16.29-1.68-22.52-5.04Z"/>
  <polygon class="cls-1" points="1130.11 481.13 1130.11 502.07 1095.69 502.07 1095.69 596.44 1073.96 596.44 1073.96 502.07 1042.56 502.07 1042.56 481.13 1130.11 481.13"/>
</svg>