<?xml version="1.0" encoding="UTF-8"?>
<svg id="Layer_1" data-name="Layer 1" xmlns="http://www.w3.org/2000/svg" viewBox="0 0 910.21 373.94">
  <defs>
    <style>
      .cls-1 {
        fill: red;
      }

      .cls-1, .cls-2 {
        stroke-width: 0px;
      }

      .cls-2 {
        fill: #fff;
      }
    </style>
  </defs>
  <path class="cls-1" d="M205.55,7.01c-.53,2.42-2.92,3.96-5.36,3.43-41.66-9.08-92.04,25.03-114.82,61.85-10.27,16.59-17.72,35.67-22.15,55.72l-.66-1.73-1.23-3.22h-6.17c4.71-19.96,12.28-38.92,22.55-55.51C102.1,28.13,156.6-8.27,202.11,1.65c2.43.53,3.97,2.93,3.44,5.36Z"/>
  <path class="cls-1" d="M416.56,248.29c-15.21,19.88-34.86,38.36-65.85,54.4-8.45,4.37-39.33,19.23-81.73,26.74-16.49,2.93-32.6,4.38-48.27,4.38-33.1.01-64.29-6.5-93.16-19.45-33.39-14.99-57.52-44.04-69.77-84.01-.05-.15-.09-.31-.14-.46h9.43c8.31,25.82,26.14,59.18,64.17,76.26,100.58,45.14,203.88-5.53,215.33-11.45,32.96-17.07,52.6-37.18,67.96-58.89v12.48h2.03Z"/>
  <path class="cls-1" d="M451.06,193.39c-1.94,3.28-3.85,6.56-5.75,9.82v-17.75c.33-.56.67-1.12,1.02-1.69l4.73,9.62Z"/>
  <path class="cls-1" d="M482.1,135.38v13.48c-4.57,5.29-8.73,10.62-12.59,15.96l-4.45-9.16c5.08-6.8,10.7-13.57,17.04-20.28Z"/>
  <path class="cls-1" d="M856.85,123.06h-11.83c-12.78-14.43-27.54-26.9-43.48-36.51-87.62-52.78-203.99-25.03-275.02,23.09-6.5,4.41-12.47,8.88-17.97,13.42h-13.82c7.83-7.07,16.66-14.04,26.74-20.87,38.29-25.93,87.04-44.46,133.75-50.82,56.22-7.65,108.42,1.84,150.97,27.47,18.88,11.37,36.15,26.56,50.66,44.22Z"/>
  <path class="cls-1" d="M892.39,288.46c-18.27,42.9-66.52,73.89-129.07,82.9-12.07,1.74-24.07,2.58-35.84,2.58-57.78,0-110.12-20.38-139.22-55.74-25.51-31-29.03-70.19-10.13-97.63l4.68,9.52c-13.4,23.86-9.11,56.26,12.4,82.39,33.07,40.19,98.55,59.8,166.83,49.97,59.41-8.55,105.04-37.53,122.07-77.52,12.78-30.01,11.59-66.9-3.31-104.17v-21.52c2.58,4.94,4.95,9.99,7.1,15.11,16.98,40.53,18.57,81.05,4.49,114.11Z"/>
  <path class="cls-1" d="M643.98,183.76v9.11c-.43,0-.86-.06-1.29-.19-2.01-.6-7.96-.33-16.09,2.48v-9.49c7.62-2.23,13.74-2.56,17.38-1.91Z"/>
  <path class="cls-1" d="M57.72,198.95h-6.65c-.66-5.12-1.12-10.29-1.39-15.48l1.31-3.73,6.73,19.21Z"/>
  <path class="cls-2" d="M57.89,128.06h-13.8L0,243.37h23.39l6.48-18.48h42.24l6.48,18.48h23.39l-44.09-115.31ZM37.21,203.95l13.78-39.33,13.78,39.33h-27.56Z"/>
  <path class="cls-2" d="M175.93,195.84c2.68-.72,5.2-1.77,7.54-3.15,4.84-2.85,8.58-6.88,11.22-12.09,2.65-5.21,3.97-11.25,3.97-18.12s-1.32-12.92-3.97-18.12c-2.64-5.21-6.37-9.24-11.18-12.1-4.81-2.85-10.39-4.28-16.73-4.28h-50.52v115.39h21.73v-46.39h13.18l26,46.39h26.33l-27.57-47.53ZM137.99,148.92h27.04c2.28,0,4.26.55,5.95,1.66,1.69,1.11,3,2.7,3.93,4.76.92,2.06,1.38,4.44,1.38,7.14-.05,2.69-.54,5.07-1.46,7.14-.93,2.06-2.24,3.64-3.93,4.75-1.69,1.11-3.65,1.67-5.87,1.67h-27.04v-27.12Z"/>
  <path class="cls-2" d="M235.77,239.53c-6.24-3.36-11-8.25-14.27-14.67-3.28-6.42-4.92-14.18-4.92-23.28v-31.64c0-9.09,1.64-16.85,4.92-23.28,3.28-6.42,8.04-11.33,14.27-14.71,6.24-3.38,13.75-5.08,22.52-5.08,7.24,0,13.72,1.56,19.43,4.68,5.71,3.12,10.43,7.65,14.16,13.6,3.73,5.95,6.3,13.13,7.73,21.53h-22.52c-.85-3.81-2.16-7.06-3.93-9.75-1.77-2.7-3.91-4.76-6.42-6.19-2.51-1.43-5.33-2.14-8.45-2.14-4.07,0-7.53.83-10.39,2.5s-5.04,4.1-6.54,7.3c-1.51,3.2-2.26,7.05-2.26,11.54v31.64c0,4.5.75,8.33,2.26,11.5,1.51,3.17,3.69,5.59,6.54,7.26,2.85,1.67,6.32,2.5,10.39,2.5,3.17,0,6.03-.7,8.57-2.1,2.54-1.4,4.68-3.45,6.42-6.15,1.75-2.7,3.01-5.97,3.81-9.83h22.52c-1.48,8.41-4.08,15.58-7.81,21.53-3.73,5.95-8.43,10.48-14.12,13.6-5.68,3.12-12.15,4.68-19.39,4.68-8.78,0-16.29-1.68-22.52-5.04Z"/>
  <path class="cls-2" d="M333.92,239.29c-6.37-3.52-11.3-8.49-14.79-14.91-3.49-6.42-5.23-13.86-5.23-22.32v-32.67c0-8.46,1.74-15.9,5.23-22.33,3.49-6.42,8.42-11.39,14.79-14.91,6.37-3.52,13.73-5.27,22.09-5.27s15.72,1.76,22.09,5.27c6.37,3.52,11.3,8.49,14.79,14.91,3.49,6.42,5.23,13.87,5.23,22.33v32.67c0,8.46-1.74,15.9-5.23,22.32-3.49,6.42-8.42,11.39-14.79,14.91-6.37,3.52-13.73,5.27-22.09,5.27s-15.72-1.76-22.09-5.27ZM366.31,220.33c2.96-1.67,5.25-4.03,6.86-7.1,1.61-3.07,2.42-6.61,2.42-10.63v-33.78c0-4.02-.81-7.56-2.42-10.63-1.61-3.07-3.9-5.43-6.86-7.1-2.96-1.67-6.4-2.5-10.31-2.5s-7.35.83-10.31,2.5c-2.96,1.67-5.25,4.03-6.86,7.1-1.61,3.07-2.42,6.61-2.42,10.63v33.78c0,4.02.81,7.56,2.42,10.63,1.61,3.07,3.9,5.43,6.86,7.1,2.96,1.67,6.4,2.5,10.31,2.5s7.35-.83,10.31-2.5Z"/>
  <polygon class="cls-2" points="507.87 128.06 507.87 243.29 481.15 243.29 440.31 160.18 440.31 243.29 419.53 243.29 419.53 128.06 446.1 128.06 487.1 212.5 487.1 128.06 507.87 128.06"/>
  <polygon class="cls-2" points="621.6 128.06 621.6 243.29 594.87 243.29 554.03 160.16 554.03 243.29 533.25 243.29 533.25 128.06 559.82 128.06 600.82 212.5 600.82 128.06 621.6 128.06"/>
  <path class="cls-1" d="M676.22,149v26.64h33.28v20.94h-33.28v25.85h42v20.94h-43.88c-16.77,0-30.36-13.59-30.36-30.36v-54.58c0-16.77,13.59-30.36,30.36-30.36h43.88v20.94h-42Z"/>
  <path class="cls-2" d="M754.86,239.53c-6.24-3.36-11-8.25-14.28-14.67s-4.92-14.18-4.92-23.28v-31.64c0-9.09,1.64-16.85,4.92-23.28s8.04-11.33,14.28-14.71c6.24-3.38,13.75-5.08,22.52-5.08,7.24,0,13.72,1.56,19.43,4.68,5.71,3.12,10.43,7.65,14.16,13.6,3.73,5.95,6.3,13.13,7.73,21.53h-22.52c-.85-3.81-2.15-7.06-3.93-9.75-1.77-2.7-3.91-4.76-6.42-6.19-2.51-1.43-5.33-2.14-8.45-2.14-4.07,0-7.53.83-10.39,2.5-2.85,1.67-5.04,4.1-6.54,7.3-1.51,3.2-2.26,7.05-2.26,11.54v31.64c0,4.5.75,8.33,2.26,11.5,1.51,3.17,3.69,5.59,6.54,7.26,2.86,1.67,6.32,2.5,10.39,2.5,3.17,0,6.03-.7,8.56-2.1,2.54-1.4,4.68-3.45,6.42-6.15,1.75-2.7,3.01-5.97,3.81-9.83h22.52c-1.48,8.41-4.08,15.58-7.81,21.53-3.73,5.95-8.43,10.48-14.12,13.6-5.68,3.12-12.15,4.68-19.39,4.68-8.78,0-16.29-1.68-22.52-5.04Z"/>
  <polygon class="cls-2" points="910.21 128.06 910.21 149 875.8 149 875.8 243.37 854.07 243.37 854.07 149 822.67 149 822.67 128.06 910.21 128.06"/>
</svg>